<?xml version="1.0" standalone="no"?>
<!DOCTYPE svg PUBLIC "-//W3C//DTD SVG 1.1//EN" "http://www.w3.org/Graphics/SVG/1.1/DTD/svg11.dtd" >
<svg xmlns="http://www.w3.org/2000/svg" xmlns:xlink="http://www.w3.org/1999/xlink" version="1.1">
<metadata></metadata>
<defs>
<font id="espacio_novo_mediumregular" horiz-adv-x="985" >
<font-face units-per-em="2048" ascent="1638" descent="-410" />
<missing-glyph horiz-adv-x="508" />
<glyph unicode="&#xd;" horiz-adv-x="508" />
<glyph horiz-adv-x="0" />
<glyph horiz-adv-x="0" />
<glyph unicode=" "  horiz-adv-x="508" />
<glyph unicode="&#x09;" horiz-adv-x="508" />
<glyph unicode="&#xa0;" horiz-adv-x="508" />
<glyph unicode="!" horiz-adv-x="243" d="M90 0h63v180h-63v-180zM90 285h63v1147h-63v-1147z" />
<glyph unicode="&#x22;" horiz-adv-x="368" d="M90 1122h63v313h-63v-313zM215 1122h63v313h-63v-313z" />
<glyph unicode="#" horiz-adv-x="1147" d="M50 474h199l-82 -474h63l83 474h426l-83 -474h64l82 474h294v63h-283l69 397h214v63h-203l76 438h-64l-76 -438h-426l76 438h-63l-76 -438h-290v-63h279l-69 -397h-210v-63zM323 537l69 397h426l-69 -397h-426z" />
<glyph unicode="$" horiz-adv-x="929" d="M50 1108q0 -144 96 -234q82 -76 287 -155v-668q-115 4 -218 66q-54 32 -82 63q-9 9 -9 22v120h-63v-120q0 -37 26 -65q34 -38 95 -74q118 -71 251 -75v-199h63v200q183 12 283 112t100 271q0 147 -118 248q-83 70 -265 142v622q127 -18 214 -101q8 -8 8 -20v-118h63v118 q0 38 -28 65q-105 101 -257 120v173h-63v-170q-185 -4 -284 -92t-99 -251zM113 1108q0 273 320 280v-602q-183 73 -252 142q-68 69 -68 180zM496 52v642q166 -68 237 -133q84 -78 84 -189q0 -296 -321 -320z" />
<glyph unicode="%" horiz-adv-x="1356" d="M52 1130q0 -155 72 -237q72 -83 208 -83q135 0 207 83q72 82 72 237q0 150 -74 235t-205 85q-132 0 -206 -85t-74 -235zM115 1130q0 100 38 164q54 93 179 93t179 -93q38 -64 38 -164q0 -257 -217 -257t-217 257zM295 0l8 18l696 1420h71l-9 -18l-696 -1420h-70zM749 301 q0 -155 72 -238q72 -82 208 -82q135 0 207 82q72 83 72 238q0 150 -74 235t-205 85q-132 0 -206 -85t-74 -235zM812 301q0 100 37 164q55 93 180 93t179 -93q38 -64 38 -164q0 -257 -217 -257t-217 257z" />
<glyph unicode="&#x26;" horiz-adv-x="1018" d="M49 384q0 -204 135 -310q113 -89 288 -89q166 0 278 83q71 -83 205 -83h12v63h-12q-212 0 -212 248v427h182v62h-182v201h-63v-201h-208q-138 0 -228 85q-90 84 -90 214t90 215q90 84 228 84q93 0 168 -42l11 -6l31 55l-11 6q-90 50 -199 50q-163 0 -272 -104 q-108 -103 -108 -258q0 -109 58 -197t157 -131q-119 -45 -188 -145q-70 -100 -70 -227zM112 384q0 145 103 242t257 97h208v-427q0 -104 35 -176q-96 -72 -243 -72q-149 0 -245 75q-115 89 -115 261z" />
<glyph unicode="'" horiz-adv-x="254" d="M88 1122h63v313h-63v-313z" />
<glyph unicode="(" horiz-adv-x="377" d="M50 206q0 -203 122 -322q63 -61 124 -79l12 -4l18 60l-12 4q-50 15 -101 67q-100 101 -100 274v1022q0 173 97 273q51 52 104 68l12 4l-18 60l-12 -4q-61 -18 -124 -79q-122 -120 -122 -322v-1022z" />
<glyph unicode=")" horiz-adv-x="377" d="M50 -139l18 -60l12 4q61 18 124 79q122 120 122 322v1022q0 203 -122 322q-63 61 -124 79l-12 4l-18 -60l12 -4q50 -15 101 -67q100 -101 100 -274v-1022q0 -173 -97 -273q-51 -52 -104 -68z" />
<glyph unicode="*" horiz-adv-x="592" d="M55 1232l198 -65l-123 -168l51 -37l123 169l122 -169l51 37l-123 168l198 65l-19 59l-198 -64v208h-63v-208l-198 64z" />
<glyph unicode="+" horiz-adv-x="1250" d="M49 686h543v-543h63v543h544v63h-544v544h-63v-544h-543v-63z" />
<glyph unicode="," horiz-adv-x="247" d="M50 -88l39 -50l10 8q68 52 56 178v132h-63v-134v-2q9 -93 -32 -125z" />
<glyph unicode="-" horiz-adv-x="1250" d="M49 686h1150v63h-1150v-63z" />
<glyph unicode="." horiz-adv-x="243" d="M90 0h63v180h-63v-180z" />
<glyph unicode="/" horiz-adv-x="599" d="M-89 0l8 18l696 1420h71l-9 -18l-696 -1420h-70z" />
<glyph unicode="0" horiz-adv-x="1044" d="M62 717q0 -352 92 -524q112 -210 374 -210t374 210q92 172 92 524q0 360 -119 547t-347 187q-229 0 -347 -187q-119 -187 -119 -547zM125 717q0 283 76 450q101 221 327 221t326 -221q77 -167 77 -450q0 -353 -96 -512q-95 -159 -307 -159t-308 159q-95 159 -95 512z" />
<glyph unicode="1" horiz-adv-x="264" d="M-10 1372h82q16 0 27 -17q12 -17 12 -39v-1316h62v1316q0 49 -29 84q-30 35 -72 35h-82v-63z" />
<glyph unicode="2" horiz-adv-x="809" d="M50 0h691v63h-569q221 309 309 430q182 250 248 439q36 103 30 156q0 155 -97 259q-98 103 -242 103q-97 0 -176 -48q-80 -49 -123 -135l-6 -11l56 -28l6 11q35 70 100 109q64 39 143 39q120 0 198 -85q79 -85 79 -216v-2q3 -42 -29 -134q-64 -181 -238 -421 q-94 -129 -345 -479z" />
<glyph unicode="3" horiz-adv-x="948" d="M50 384q0 -204 135 -311q114 -89 289 -89t289 89q135 107 135 311q0 128 -70 228t-189 145q100 43 158 131q58 89 58 198q0 155 -109 259t-272 104t-272 -104t-109 -259v-12h62v12q0 131 90 215q90 85 229 85q138 0 228 -85q90 -84 90 -215q0 -130 -90 -215t-228 -85h-13 v-62h13q154 0 258 -98q103 -97 103 -242q0 -172 -115 -262q-97 -75 -246 -75t-246 75q-115 90 -115 262v13h-63v-13z" />
<glyph unicode="4" horiz-adv-x="823" d="M50 590h662v-590h63v1435h-63v-782h-587l137 782h-64z" />
<glyph unicode="5" horiz-adv-x="915" d="M50 226l5 -12q50 -109 150 -169q101 -60 234 -60q176 0 291 100q136 120 136 349q0 222 -109 337t-318 115h-261l86 486h552v63h-604l-109 -612h336q364 0 364 -389q0 -197 -116 -300q-98 -86 -248 -86q-114 0 -200 50q-85 50 -127 142l-5 11z" />
<glyph unicode="6" horiz-adv-x="1003" d="M50 457q0 -241 144 -366q121 -105 308 -105q186 0 307 105q144 125 144 366q0 189 -101 318q-121 154 -350 154q-272 0 -388 -211q10 409 159 558q110 111 311 111h151v63h-151q-227 0 -356 -130q-120 -121 -158 -363q-22 -141 -20 -429v-71zM113 458q1 169 88 278 q103 131 301 131t301 -131q87 -110 87 -279q0 -209 -124 -317q-104 -92 -264 -92q-161 0 -265 92q-124 109 -124 318z" />
<glyph unicode="7" horiz-adv-x="882" d="M50 1372h683q21 0 30 -12t3 -32l-395 -1328h65l390 1311q15 49 -13 87q-28 37 -80 37h-683v-63z" />
<glyph unicode="8" horiz-adv-x="948" d="M50 386q0 -205 135 -311q114 -90 289 -90t289 90q135 106 135 311q0 127 -70 227t-189 145q99 43 158 132q58 88 58 197q0 155 -109 259t-272 104t-272 -104t-109 -259q0 -109 58 -197q58 -89 158 -132q-119 -45 -189 -145t-70 -227zM113 386q0 145 103 242t258 97 q154 0 257 -97q104 -97 104 -242q0 -173 -115 -262q-97 -76 -246 -76t-246 76q-115 89 -115 262zM155 1087q0 131 90 216q90 84 229 84q138 0 228 -84q90 -85 90 -216q0 -130 -90 -215q-90 -84 -228 -84q-139 0 -229 84q-90 85 -90 215z" />
<glyph unicode="9" horiz-adv-x="1003" d="M50 979q0 -189 100 -318q122 -155 351 -155q271 0 388 212q-11 -409 -159 -558q-111 -112 -312 -112h-151v-62h151q227 0 357 130q120 120 158 362q22 142 20 429v72q0 241 -144 366q-121 105 -308 105q-186 0 -307 -105q-144 -125 -144 -366zM112 979q0 209 124 317 q105 91 265 91q161 0 265 -91q124 -109 124 -318q-1 -169 -88 -279q-104 -130 -301 -130q-199 0 -302 131q-87 110 -87 279z" />
<glyph unicode=":" horiz-adv-x="247" d="M93 0h63v180h-63v-180zM93 883h63v180h-63v-180z" />
<glyph unicode=";" horiz-adv-x="247" d="M50 -88l39 -50l10 8q68 52 56 178v132h-63v-134v-2q9 -93 -32 -125zM94 883h63v180h-63v-180z" />
<glyph unicode="&#x3c;" horiz-adv-x="757" d="M54 718l653 -423v74l-538 349l538 348v75z" />
<glyph unicode="=" horiz-adv-x="1246" d="M49 416h1150v63h-1150v-63zM49 901h1150v63h-1150v-63z" />
<glyph unicode="&#x3e;" horiz-adv-x="757" d="M54 295l653 423l-653 423v-75l538 -348l-538 -349v-74z" />
<glyph unicode="?" horiz-adv-x="861" d="M50 1071h63v13q0 144 101 227q89 72 216 72q190 0 270 -123q48 -75 48 -176q0 -117 -29 -172q-22 -42 -117 -135q-47 -45 -74 -72q-97 -98 -124 -194q-18 -62 -18 -200v-26h63v26q0 126 15 181q24 83 109 169q27 27 72 71q100 97 127 147q39 72 39 205q0 122 -58 213 q-95 149 -323 149q-153 0 -261 -92q-119 -101 -119 -270v-13zM386 0h63v180h-63v-180z" />
<glyph unicode="@" horiz-adv-x="1459" d="M69 725q-65 -404 84 -579q137 -161 463 -161q365 0 556 202l11 12l-59 29l-6 -6q-164 -174 -502 -174q-297 0 -415 139q-130 153 -70 528q47 284 189 454q187 222 525 222q276 0 399 -145q143 -168 85 -521q-28 -175 -79 -297q-27 -61 -93 -86q-34 -13 -64 -13h-59 q-6 0 -10 5q-10 11 -6 32l73 448q21 134 -49 217q-80 93 -260 93q-122 0 -230 -58q-52 -27 -61 -85l-11 -69l59 -28l14 87q5 27 29 40q94 50 200 50q151 0 212 -71q52 -61 34 -166l-10 -65q-3 4 -7 8q-72 85 -286 85q-182 0 -277 -71q-96 -71 -121 -224q-23 -137 42 -214 q77 -90 269 -90q210 0 316 105q0 -39 22 -65q23 -27 58 -27h59q41 0 88 18q90 34 127 119q54 130 84 312q62 382 -100 572q-142 167 -447 167q-368 0 -571 -240q-155 -182 -205 -489zM389 547q18 111 77 166q82 76 259 76q185 0 238 -63q42 -48 22 -169q-39 -241 -347 -241 q-163 0 -221 68q-46 54 -28 163z" />
<glyph unicode="A" horiz-adv-x="1316" d="M30 0h82q42 0 84 44q37 41 56 96l87 246h639l107 -306q12 -34 45 -57q32 -23 68 -23h89v63h-89q-16 0 -32 12q-17 11 -22 26l-440 1254q-12 34 -44 57q-33 23 -69 23h-88v-62h88q12 0 24 -7l-422 -1206q-14 -41 -41 -70q-24 -27 -40 -27h-82v-63zM361 449l297 849 l298 -849h-595z" />
<glyph unicode="B" horiz-adv-x="1129" d="M50 0h665q163 0 268 124q97 114 97 269q0 113 -63 215q-68 111 -184 155q82 45 130 131q49 86 49 185q0 141 -83 243q-92 113 -240 113h-639v-62h120v-1310h-120v-63zM233 63v661h469q139 0 231 -106q84 -98 84 -225q0 -130 -80 -226q-87 -104 -222 -104h-482zM233 787 v586h456q120 0 194 -94q66 -84 66 -200q0 -115 -72 -200q-79 -92 -201 -92h-443z" />
<glyph unicode="C" horiz-adv-x="1132" d="M50 719q0 -306 125 -501q149 -232 437 -232q201 0 341 100q72 52 104 106q24 41 24 88v106h-63v-106q0 -30 -15 -56q-26 -44 -90 -88q-124 -87 -301 -87q-299 0 -423 276q-76 167 -76 394q0 226 76 393q124 276 423 276q178 0 300 -85q63 -43 91 -90q15 -26 15 -56v-108 h63v108q0 47 -24 88q-32 54 -104 106q-140 100 -341 100q-288 0 -437 -232q-125 -195 -125 -500z" />
<glyph unicode="D" horiz-adv-x="1180" d="M50 0h441q286 0 463 197q176 198 176 519q0 326 -164 518q-166 194 -456 200l-460 1v-63h120v-1309h-120v-63zM232 63v1309h259q270 0 423 -174t153 -482q0 -268 -139 -449q-157 -204 -437 -204h-259z" />
<glyph unicode="E" horiz-adv-x="1081" d="M50 0h861q49 0 84 29t35 69v80h-63v-80q0 -14 -17 -25q-17 -10 -39 -10h-678v661h652v63h-652v586h678q22 0 39 -11t17 -25v-79h63v79q0 41 -35 70q-35 28 -84 28h-861v-62h120v-1310h-120v-63z" />
<glyph unicode="F" horiz-adv-x="1079" d="M50 0h82q42 0 71 35q30 35 30 84v605h652v63h-652v586h678q22 0 39 -11t17 -25v-79h63v79q0 41 -35 70q-35 28 -84 28h-861v-62h120v-1254q0 -22 -12 -39q-11 -17 -26 -17h-82v-63z" />
<glyph unicode="G" horiz-adv-x="1132" d="M50 719q0 -306 125 -501q149 -232 437 -232q201 0 341 100q72 52 104 106q24 41 24 88v470h-443v-63h380v-407q0 -30 -15 -56q-26 -44 -90 -88q-124 -87 -301 -87q-299 0 -423 276q-76 167 -76 394q0 226 76 393q124 276 423 276q178 0 300 -85q63 -43 91 -90 q15 -26 15 -56v-108h63v108q0 47 -24 88q-32 54 -104 106q-140 100 -341 100q-288 0 -437 -232q-125 -195 -125 -500z" />
<glyph unicode="H" horiz-adv-x="1261" d="M50 0h82q42 0 71 35q30 35 30 84v605h797v-605q0 -49 29 -84q30 -35 71 -35h82v63h-82q-15 0 -26 17t-11 39v1197q0 23 11 40t26 17h82v62h-82q-41 0 -71 -35q-29 -35 -29 -84v-529h-797v529q0 49 -30 84q-29 35 -71 35h-82v-62h82q15 0 26 -17q12 -17 12 -40v-1197 q0 -22 -12 -39q-11 -17 -26 -17h-82v-63z" />
<glyph unicode="I" horiz-adv-x="364" d="M30 1373h82q16 0 27 -17q12 -17 12 -40v-1197q0 -49 29 -84q30 -35 72 -35h82v63h-82q-16 0 -27 17q-12 17 -12 39v1197q0 49 -29 84q-30 35 -72 35h-82v-62z" />
<glyph unicode="J" horiz-adv-x="358" d="M-133 -178v-63h12q229 0 332 215q54 112 59 220v1124q0 47 -25 81q-29 38 -73 38h-82v-63h82q12 0 23 -13q13 -17 12 -43l1 -1122q-6 -99 -50 -193q-87 -181 -279 -181h-12z" />
<glyph unicode="K" horiz-adv-x="1127" d="M50 0h82q42 0 71 35q30 35 30 84v586h62q30 0 50 -23l549 -637q38 -45 98 -45h106v63h-106q-31 0 -51 23l-548 637q-6 7 -14 13q8 6 14 13l547 601q21 23 52 23h106v62h-106q-59 0 -99 -43l-546 -601q-21 -23 -52 -23h-62v548q0 49 -30 84q-29 35 -71 35h-82v-62h82 q15 0 26 -17q12 -17 12 -40v-1197q0 -22 -12 -39q-11 -17 -26 -17h-82v-63z" />
<glyph unicode="L" horiz-adv-x="1081" d="M50 1373h82q16 0 27 -17q12 -17 12 -40v-1316h740q49 0 84 29t35 69v80h-63v-80q0 -14 -17 -25q-17 -10 -39 -10h-678v1253q0 49 -29 84q-30 35 -72 35h-82v-62z" />
<glyph unicode="M" horiz-adv-x="1584" d="M50 0h82q41 0 71 35q29 35 29 84l2 1123l506 -1215q18 -43 53 -43t53 43l505 1215l2 -1123q0 -49 29 -84q30 -35 71 -35h82v63h-82q-15 0 -26 17q-12 17 -12 39l-1 1241q17 11 33 11h88v63h-88q-35 0 -69 -23q-33 -22 -47 -55l-538 -1293l-539 1293q-13 33 -47 55 q-34 23 -69 23h-88v-63h88q16 0 33 -11l-1 -1241q0 -22 -12 -39q-11 -17 -26 -17h-82v-63z" />
<glyph unicode="N" horiz-adv-x="1268" d="M50 0h82q42 0 71 35q30 35 30 84v1176l775 -1227q42 -68 122 -68h89v63h-89q-13 0 -31 8v1245q0 23 11 40q12 17 27 17h82v62h-82q-42 0 -71 -35q-30 -35 -30 -84v-1176l-775 1228q-43 67 -123 67h-88v-62h88q14 0 32 -8v-1246q0 -22 -12 -39q-11 -17 -26 -17h-82v-63z " />
<glyph unicode="O" horiz-adv-x="1256" d="M52 718q0 -361 147 -548t430 -187q284 0 431 187t147 548q0 266 -94 450q-144 284 -484 284q-339 0 -483 -284q-94 -184 -94 -450zM115 718q0 243 83 411q129 260 431 260q303 0 432 -260q83 -168 83 -411q0 -299 -106 -468q-128 -204 -409 -204q-280 0 -408 204 q-106 169 -106 468z" />
<glyph unicode="P" horiz-adv-x="1140" d="M60 0h82q42 0 71 35q30 35 30 84v530h482q163 0 268 124q97 115 97 270q0 154 -97 268q-105 124 -268 124h-665v-62h120v-1254q0 -22 -12 -39q-11 -17 -26 -17h-82v-63zM243 711v662h482q135 0 222 -105q80 -96 80 -225q0 -130 -80 -227q-87 -105 -222 -105h-482z" />
<glyph unicode="Q" horiz-adv-x="1256" d="M52 718q0 -361 147 -548t430 -187q231 0 373 127q111 -112 183 -112h152v63h-152q-46 0 -139 94q161 187 161 563q0 266 -94 450q-144 284 -484 284q-339 0 -483 -284q-94 -184 -94 -450zM115 718q0 243 83 411q129 260 431 260q303 0 432 -260q83 -168 83 -411 q0 -299 -106 -468q-16 -26 -36 -50l-1 2q-217 226 -383 280q-120 39 -227 39q-146 0 -249 -70q-27 118 -27 267zM160 386q87 73 231 73q96 0 207 -37q151 -49 357 -264l3 -3q-124 -109 -329 -109q-280 0 -408 204q-37 59 -61 136z" />
<glyph unicode="R" horiz-adv-x="1229" d="M50 0h82q42 0 71 35q30 35 30 84v530h406l361 -595q32 -54 95 -54h106v63h-106q-28 0 -42 23l-341 563h3q163 0 268 124q97 115 97 270q0 154 -97 268q-105 124 -268 124h-665v-62h120v-1254q0 -22 -12 -39q-11 -17 -26 -17h-82v-63zM233 711v662h482q135 0 222 -105 q80 -96 80 -225q0 -130 -80 -227q-87 -105 -222 -105h-482z" />
<glyph unicode="S" horiz-adv-x="934" d="M53 1108q0 -145 97 -235q82 -76 290 -156q201 -77 283 -146q98 -81 98 -200q0 -186 -133 -266q-93 -56 -237 -56q-192 0 -315 129q-9 10 -9 23v119h-63v-119q0 -38 26 -65q36 -40 99 -77q123 -73 262 -73q206 0 319 101q114 100 114 284q0 153 -125 253q-87 71 -296 152 q-200 76 -274 147q-73 70 -73 185q0 157 110 227q84 53 225 53q152 0 263 -105q8 -8 8 -20v-118h63v118q0 38 -28 65q-34 33 -88 63q-107 60 -218 60q-192 0 -295 -88q-103 -89 -103 -255z" />
<glyph unicode="T" horiz-adv-x="1077" d="M50 1259h63v82q0 13 9 22t22 9h364v-1372h62v1372h364q13 0 22 -9t9 -22v-82h63v82q0 39 -27 67q-28 27 -67 27h-790q-39 0 -66 -27q-28 -28 -28 -67v-82z" />
<glyph unicode="U" horiz-adv-x="1305" d="M50 1372h79q13 0 23 -16q12 -17 12 -40v-710q0 -305 124 -463q125 -158 365 -158q239 0 364 158q124 158 124 463v710q0 23 12 40q10 16 23 16h79v63h-79q-40 0 -69 -35q-28 -35 -28 -84v-710q0 -558 -426 -558q-427 0 -427 558v710q0 49 -28 84q-29 35 -69 35h-79v-63z " />
<glyph unicode="V" horiz-adv-x="1312" d="M29 1372h88q16 0 32 -12t21 -26l443 -1304q16 -45 50 -45t50 46l430 1303q5 14 21 26q17 12 32 12h88v62h-88q-36 0 -68 -23q-33 -24 -44 -58l-421 -1273l-433 1274q-12 34 -45 57q-32 23 -68 23h-88v-62z" />
<glyph unicode="W" horiz-adv-x="2264" d="M30 1372h88q16 0 32 -12t21 -26l431 -1303q15 -46 48 -46h1q35 0 50 45l431 1267l418 -1266q15 -45 49 -46h1q34 0 50 45l443 1304q5 14 21 26t32 12h88v62h-88q-36 0 -69 -23q-32 -23 -44 -57l-433 -1274l-421 1273q-11 34 -44 58q-32 23 -68 23h-88v-62h88q10 0 22 -6 l-437 -1286l-421 1273q-12 34 -44 58q-33 23 -69 23h-88v-62z" />
<glyph unicode="X" horiz-adv-x="1007" d="M30 0h64q31 0 61 19t44 47l309 613l310 -613q14 -28 42 -47q29 -19 57 -19h60v63h-60q-28 0 -43 31l-313 621q-5 9 -11 16q6 7 10 16l281 594q15 32 47 32h89v62h-89q-31 0 -60 -19q-30 -19 -44 -48l-276 -584l-285 585q-13 28 -43 47t-60 19h-90v-62h90q32 0 47 -32 l289 -595q5 -8 10 -15q-6 -7 -10 -16l-313 -621q-16 -31 -49 -31h-64v-63z" />
<glyph unicode="Y" horiz-adv-x="1066" d="M40 1372h88q28 0 44 -31l313 -621q8 -17 22 -26v-694h62v695q13 10 21 25l313 621q15 31 48 31h85v63h-85q-31 0 -60 -19q-30 -19 -44 -47l-310 -613l-309 613q-14 28 -43 47t-57 19h-88v-63z" />
<glyph unicode="Z" horiz-adv-x="948" d="M30 0h795q39 0 66 28q28 27 28 66v84h-63v-84q0 -13 -9 -22t-22 -9h-687l778 1372h-769q-39 0 -67 -27q-28 -28 -28 -67v-83h63v83q0 13 9 22q10 10 23 10h661z" />
<glyph unicode="[" horiz-adv-x="388" d="M50 -92h289v63h-226v1494h226v62h-289v-1619z" />
<glyph unicode="\" horiz-adv-x="599" d="M-89 1438h70l696 -1420l9 -18h-71l-696 1420z" />
<glyph unicode="]" horiz-adv-x="388" d="M50 -30v-62h289v1619h-289v-63h226v-1494h-226z" />
<glyph unicode="^" horiz-adv-x="448" d="M55 1215h73l100 170l99 -170h73l-130 221h-85z" />
<glyph unicode="_" horiz-adv-x="1250" d="M49 -45v-63h1150v63h-1150z" />
<glyph unicode="`" horiz-adv-x="301" d="M49 1436l131 -221h72l-129 221h-74z" />
<glyph unicode="a" horiz-adv-x="1059" d="M54 329q0 -345 411 -345q258 0 361 136v-2q0 -49 29 -84q30 -35 71 -35h82v63h-82q-15 0 -26 17t-11 39v523q0 128 -67 216q-102 137 -342 137q-143 0 -255 -66q-59 -35 -59 -103v-94h63v94q0 32 28 49q97 57 223 57q203 0 290 -112q56 -73 56 -178v-83q-92 116 -361 116 q-213 0 -312 -83t-99 -262zM117 329q0 133 59 196q81 86 289 86q215 0 294 -72q67 -61 67 -210q0 -282 -361 -282q-207 0 -290 92q-58 65 -58 190z" />
<glyph unicode="b" horiz-adv-x="1114" d="M59 0h81q42 0 71 35q30 35 30 84v69q108 -203 380 -203q218 0 330 128q113 129 113 376q0 182 -71 308q-111 195 -372 195q-271 0 -380 -212v533q0 49 -30 84q-29 35 -71 35h-81v-62h81q15 0 27 -17q11 -17 11 -40v-1194q0 -22 -11 -39q-12 -17 -27 -17h-81v-63zM241 489 q0 160 61 270q95 171 319 171t319 -171q62 -110 62 -270q0 -441 -381 -441q-380 0 -380 441z" />
<glyph unicode="c" horiz-adv-x="919" d="M59 487q0 -208 99 -343q117 -160 342 -160q158 0 265 65q55 33 79 68q26 40 26 87v108h-62v-108q0 -28 -16 -51q-18 -27 -66 -54q-92 -52 -226 -52q-226 0 -321 181q-57 110 -57 259q0 150 57 261q95 182 321 182q134 0 226 -53q47 -28 66 -55q16 -23 16 -52v-105h62v105 q0 47 -25 87q-24 36 -80 70q-107 66 -265 66q-225 0 -342 -161q-99 -136 -99 -345z" />
<glyph unicode="d" horiz-adv-x="1114" d="M59 489q0 -247 112 -376q113 -128 331 -128q272 0 380 203v-69q0 -49 30 -84q29 -35 71 -35h81v63h-81q-16 0 -27 17t-11 39v1194q0 23 11 40t27 17h81v62h-81q-42 0 -71 -35q-30 -35 -30 -84v-533q-109 212 -380 212q-261 0 -372 -195q-71 -126 -71 -308zM121 489 q0 160 62 270q95 171 319 171q223 0 319 -171q61 -110 61 -270q0 -441 -380 -441q-381 0 -381 441z" />
<glyph unicode="e" horiz-adv-x="1000" d="M63 491q0 -248 113 -376q113 -129 331 -129q158 0 267 69q57 35 82 73q21 31 21 68v74h-63v-74q0 -18 -10 -33q-20 -29 -68 -58q-95 -56 -229 -56q-367 0 -381 410h825v32q0 183 -72 309q-111 195 -372 195t-372 -195q-72 -126 -72 -309zM127 522q6 162 75 265 q97 146 305 146t305 -146q69 -103 76 -265h-761z" />
<glyph unicode="f" horiz-adv-x="496" d="M50 0h82q42 0 71 35q30 35 30 84v601h215v63h-215v370q3 62 31 121q54 113 172 113h12v63h-12q-155 0 -226 -146q-36 -75 -40 -148v-1037q0 -22 -11 -39q-12 -17 -27 -17h-82v-63z" />
<glyph unicode="g" horiz-adv-x="1103" d="M51 488q0 -247 113 -375q113 -129 331 -129q272 0 380 203v-218q-1 -96 -45 -186q-85 -174 -296 -174q-142 0 -226 89q-17 19 -17 45v107h-62v-107q0 -50 32 -87q26 -29 73 -57q91 -53 200 -53q250 0 352 210q53 107 53 213v886q0 30 17 47q9 9 20 9h81v63h-81 q-37 0 -65 -28q-35 -36 -35 -91v-76q-109 214 -381 214q-261 0 -372 -196q-72 -126 -72 -309zM114 488q0 161 62 271q95 171 319 171q220 0 316 -171q62 -110 65 -269q-3 -218 -100 -330q-97 -113 -281 -113q-381 0 -381 441z" />
<glyph unicode="h" d="M50 0h82q42 0 71 35q30 35 30 84v440q0 135 51 229q81 144 269 144q189 0 269 -144q52 -94 52 -229v-559h62v559q0 158 -61 267q-96 169 -322 169q-223 0 -320 -169v490q0 49 -30 84q-29 35 -71 35h-82v-62h82q15 0 26 -17q12 -17 12 -40v-1197q0 -22 -12 -39 q-11 -17 -26 -17h-82v-63z" />
<glyph unicode="i" horiz-adv-x="243" d="M90 0h63v976h-63v-976z" />
<glyph unicode="j" horiz-adv-x="358" d="M-145 -390v-63h12q250 0 352 210q52 107 53 213v887q0 49 -30 84q-29 35 -70 35h-81v-62h81q15 0 26 -17t11 -40v-887q0 -96 -45 -186q-85 -174 -297 -174h-12z" />
<glyph unicode="k" horiz-adv-x="970" d="M50 0h82q42 0 71 35q30 35 30 84v350h32q24 0 41 -17l417 -417q35 -35 85 -35h114v63h-114q-24 0 -41 17l-417 416q-1 2 -3 4l3 3l404 393q17 16 41 16h115v63h-115q-49 0 -85 -34l-403 -393q-18 -17 -42 -17h-32v785q0 49 -30 84q-29 35 -71 35h-82v-62h82q15 0 26 -17 q12 -17 12 -40v-1197q0 -22 -12 -39q-11 -17 -26 -17h-82v-63z" />
<glyph unicode="l" horiz-adv-x="241" d="M91 0h62v1316h-62v-1316z" />
<glyph unicode="m" horiz-adv-x="1481" d="M50 0h82q42 0 71 35q30 35 30 84v501q0 113 43 191q67 121 225 121q157 0 224 -121q44 -78 44 -191v-620h62v620q0 113 44 191q67 121 225 121q157 0 224 -121q44 -78 44 -191v-620h62v620q0 136 -53 229q-83 146 -277 146q-225 0 -300 -193q-75 193 -299 193 q-184 0 -269 -131q-2 47 -31 79q-29 33 -69 33h-82v-63h82q15 0 26 -17q12 -17 12 -40v-737q0 -22 -12 -39q-11 -17 -26 -17h-82v-63z" />
<glyph unicode="n" d="M50 0h82q42 0 71 35q30 35 30 84v440q0 135 51 229q81 144 269 144q189 0 269 -144q52 -94 52 -229v-559h62v559q0 158 -62 267q-95 169 -321 169q-223 0 -320 -169v30q0 50 -30 85q-29 35 -71 35h-82v-63h82q15 0 26 -17q12 -17 12 -40v-737q0 -22 -12 -39 q-11 -17 -26 -17h-82v-63z" />
<glyph unicode="o" horiz-adv-x="989" d="M50 488q0 -248 113 -376q113 -129 331 -129t331 129q113 128 113 376q0 183 -72 309q-111 196 -372 196t-372 -196q-72 -126 -72 -309zM113 488q0 160 61 271q96 171 320 171t320 -171q61 -111 61 -271q0 -442 -381 -442t-381 442z" />
<glyph unicode="p" horiz-adv-x="1112" d="M51 -402v-63h82q42 0 71 35q30 35 30 85v530q108 -204 382 -204q219 0 332 129q114 129 114 377q0 184 -72 310q-112 196 -374 196q-272 0 -382 -214v76q0 49 -30 84q-29 35 -71 35h-82v-63h82q15 0 27 -17q11 -17 11 -39v-1200q0 -23 -11 -40q-12 -17 -27 -17h-82z M234 487q0 161 62 272q95 171 320 171t321 -171q62 -111 62 -272q0 -443 -383 -443q-382 0 -382 443z" />
<glyph unicode="q" horiz-adv-x="1112" d="M51 487q0 -248 113 -377q114 -129 332 -129q274 0 383 204v-530q0 -50 29 -85q30 -35 71 -35h83v63h-83q-15 0 -26 17q-12 17 -12 40v1200q0 22 12 39q11 17 26 17h83v63h-83q-41 0 -71 -35q-29 -35 -29 -84v-76q-110 214 -383 214q-262 0 -373 -196q-72 -126 -72 -310z M114 487q0 161 62 272q95 171 320 171t321 -171q62 -111 62 -272q0 -443 -383 -443q-382 0 -382 443z" />
<glyph unicode="r" horiz-adv-x="614" d="M49 913h82q15 0 27 -17q11 -17 11 -40v-856h63v559q0 135 52 228q80 145 268 145h13v62h-13q-223 0 -320 -168v30q0 50 -30 85q-29 34 -71 34h-82v-62z" />
<glyph unicode="s" horiz-adv-x="754" d="M50 747q0 -102 77 -165q64 -53 227 -107q152 -51 214 -95q73 -52 73 -127q0 -119 -99 -170q-70 -36 -178 -36q-147 0 -238 85q-4 3 -4 8v83h-63v-83q0 -32 23 -54q108 -102 282 -102q162 0 251 70q89 71 89 199q0 107 -97 177q-69 49 -233 104q-152 51 -206 96 q-55 44 -55 117q0 106 91 152q62 32 160 32q114 0 198 -74q3 -3 3 -7v-82h63v82q0 32 -24 54q-100 90 -240 90q-149 0 -231 -65q-83 -64 -83 -182z" />
<glyph unicode="t" horiz-adv-x="408" d="M49 296q0 -151 71 -231t204 -80h13v63h-13q-212 0 -212 248v617h245v63h-245v340h-63v-1020z" />
<glyph unicode="u" d="M49 416q1 -157 63 -265q96 -167 320 -167t321 168v-34q0 -49 29 -84q30 -35 71 -35h82v63h-82q-15 0 -26 17q-12 17 -12 39v738q0 22 12 39q11 17 26 17h82v63h-82q-41 0 -71 -35q-29 -35 -29 -84v-437q0 -135 -52 -228q-80 -144 -269 -144t-269 144q-52 93 -52 228v556 h-62v-559z" />
<glyph unicode="v" horiz-adv-x="1147" d="M50 912h96q34 0 46 -31l335 -860q16 -41 49 -41h1q33 0 48 41l326 860q12 31 46 31h95v63h-95q-33 0 -63 -21q-30 -20 -41 -51l-317 -835l-325 836q-12 30 -42 51q-30 20 -63 20h-96v-63z" />
<glyph unicode="w" horiz-adv-x="1823" d="M30 913h98q33 0 46 -31l335 -860q16 -42 49 -42q33 1 49 42l307 811l316 -811q16 -42 49 -42h1q33 1 49 42l325 860q12 31 46 31h94v63h-94q-33 0 -63 -21t-41 -51l-317 -835l-325 835q-12 31 -42 52q-30 20 -63 20h-96v-63h96q12 0 25 -8l-316 -836l-326 835 q-12 31 -42 52q-30 20 -62 20h-98v-63z" />
<glyph unicode="x" horiz-adv-x="951" d="M30 0h112q58 0 88 49l250 401l250 -401q30 -49 88 -49h102v63h-102q-23 0 -35 19l-255 410l-4 6q2 2 3 5l229 392q12 19 34 19h109v63h-109q-58 0 -88 -50l-222 -381l-229 381q-30 50 -88 50h-112v-63h112q22 0 34 -19l236 -392q1 -3 3 -6q-2 -2 -4 -5l-255 -410 q-12 -19 -35 -19h-112v-63z" />
<glyph unicode="y" d="M50 406q4 -156 68 -260q97 -159 314 -159q223 0 320 167l-1 -182q0 -96 -44 -186q-85 -174 -296 -174h-13v-63h13q248 0 350 210q53 107 53 213l1 885q0 23 11 39q12 17 27 17h82v63h-82q-42 0 -71 -35q-30 -35 -30 -84v-452q-4 -139 -60 -227q-81 -128 -260 -128 q-188 0 -268 144q-51 93 -51 227v555h-63v-570z" />
<glyph unicode="z" horiz-adv-x="801" d="M30 0h656q32 0 55 22q23 23 23 54v58h-63v-58q0 -13 -15 -13h-538l624 920h-637q-32 0 -55 -22q-22 -23 -22 -54v-58h63v58q0 13 14 13h518z" />
<glyph unicode="{" horiz-adv-x="493" d="M51 698l1 -12l11 -1q27 -3 54 -41q54 -74 54 -240v-198q0 -202 122 -321q63 -61 124 -79l12 -4l18 60l-12 4q-50 15 -101 67q-100 101 -100 273v198q0 232 -97 312q97 81 97 313v197q0 174 97 273q51 52 104 68l12 4l-18 60l-12 -4q-61 -18 -124 -79q-122 -119 -122 -322 v-197q0 -167 -54 -241q-27 -37 -54 -40l-12 -1v-49z" />
<glyph unicode="|" horiz-adv-x="243" d="M90 -94h63v1620h-63v-1620z" />
<glyph unicode="}" horiz-adv-x="493" d="M51 -138l18 -60l12 4q62 18 124 79q122 119 122 321v198q0 166 54 240q28 38 55 41l11 1v12v49l-12 1q-27 3 -54 40q-54 74 -54 241v197q0 203 -122 322q-63 61 -124 79l-12 4l-18 -60l12 -4q54 -16 104 -68q97 -99 97 -273v-197q0 -232 98 -313q-98 -80 -98 -312v-198 q0 -172 -99 -273q-51 -52 -102 -67z" />
<glyph unicode="~" horiz-adv-x="658" d="M56 1283l49 -38l8 10q32 41 82 45q50 3 104 -48q62 -60 135 -60h9q97 5 168 91l8 9l-48 41l-8 -10q-56 -65 -123 -68q-51 -3 -97 42q-74 71 -153 66q-77 -6 -127 -70z" />
<glyph unicode="&#xa1;" horiz-adv-x="243" d="M90 -369h63v1147h-63v-1147zM90 883h63v180h-63v-180z" />
<glyph unicode="&#xa2;" horiz-adv-x="922" d="M59 488q0 -274 162 -411l-118 -221l56 -30l114 215q97 -57 227 -57q158 0 265 65q55 33 79 69q27 39 27 86v109h-63v-109q0 -28 -16 -51q-18 -26 -66 -53q-92 -53 -226 -53q-116 0 -198 48l419 786q51 -29 71 -58q16 -24 16 -52v-106h63v106q-1 47 -26 86q-28 43 -94 79 l122 230l-56 29l-124 -233q-85 32 -193 32q-225 0 -342 -162q-99 -135 -99 -344zM122 488q0 149 57 260q95 183 321 183q91 0 163 -25l-412 -773q-129 118 -129 355z" />
<glyph unicode="&#xa3;" horiz-adv-x="776" d="M59 745h119q10 -40 22 -81q71 -244 -15 -450q-45 -106 -102 -159l-7 -6l19 -49h631v63h-554q73 100 103 226q45 186 -15 393q-9 30 -17 63h399v62h-415q-45 184 -46 278q0 132 74 216q73 84 190 84q133 0 210 -72l9 -9l43 46l-9 9q-95 88 -253 88q-145 0 -236 -101 t-91 -261q1 -95 44 -278h-103v-62z" />
<glyph unicode="&#xa4;" horiz-adv-x="1256" d="M63 197l45 -45l192 192q143 -127 334 -127q192 0 335 127l192 -192l44 45l-191 191q126 144 126 335t-126 335l191 192l-44 44l-192 -192q-143 127 -335 127q-191 0 -334 -127l-192 192l-45 -44l192 -192q-127 -144 -127 -335t127 -335zM191 723q0 183 130 313t313 130 q184 0 314 -130t130 -313t-130 -313t-314 -130q-183 0 -313 130t-130 313z" />
<glyph unicode="&#xa5;" horiz-adv-x="1055" d="M30 1372h88q28 0 44 -31l298 -592h-326v-63h363v-221h-363v-63h363v-402h62v402h363v63h-363v221h363v63h-328l299 592q15 31 48 31h85v63h-85q-31 0 -60 -19q-30 -19 -44 -47l-310 -613l-309 613q-14 28 -43 47t-57 19h-88v-63z" />
<glyph unicode="&#xa6;" horiz-adv-x="243" d="M90 -94h63v636h-63v-636zM90 890h63v636h-63v-636z" />
<glyph unicode="&#xa7;" horiz-adv-x="809" d="M54 745q0 -103 76 -165q64 -53 227 -108q152 -50 213 -94q74 -53 74 -127q0 -119 -100 -171q-69 -35 -177 -35q-146 0 -238 85q-3 3 -4 7v84h-62v-84q0 -31 22 -53q29 -27 78 -52q96 -50 204 -50q162 0 251 70q89 71 89 199q0 130 -148 208q200 54 200 251q0 108 -98 178 q-68 49 -232 104q-152 50 -206 95q-55 44 -55 117q0 106 91 152q62 32 160 32q113 0 198 -74q3 -3 3 -7v-82h63v82q0 32 -24 54q-100 90 -240 90q-149 0 -231 -65q-82 -64 -82 -182q0 -79 46 -134q40 -48 124 -87q-107 -18 -164 -80q-58 -62 -58 -158zM116 745q0 106 91 151 q62 32 160 32h54q145 -49 204 -92q71 -52 71 -126q0 -190 -243 -205q-31 12 -76 27q-151 51 -206 95q-55 45 -55 118z" />
<glyph unicode="&#xa8;" horiz-adv-x="408" d="M49 1404q0 -24 16 -40q17 -17 40 -17q24 0 40 17q17 16 17 40q0 23 -17 40q-16 16 -40 16q-23 0 -40 -16q-16 -17 -16 -40zM248 1404q0 -24 17 -40q16 -17 40 -17q23 0 40 17q16 16 16 40q0 23 -16 40q-17 16 -40 16q-24 0 -40 -16q-17 -17 -17 -40z" />
<glyph unicode="&#xa9;" horiz-adv-x="1560" d="M49 716q0 -302 214 -516t516 -214t516 214t214 516q0 303 -214 517q-214 215 -516 215t-516 -215q-214 -214 -214 -517zM112 716q0 277 195 473q196 196 472 196t471 -196q196 -196 196 -473q0 -276 -196 -472q-195 -196 -471 -196t-472 196q-195 196 -195 472zM387 716 q0 -188 89 -310q106 -144 310 -144q143 0 239 58q50 31 72 63q24 36 24 79v98h-63v-98q0 -24 -13 -44q-16 -23 -59 -47q-81 -47 -200 -47q-201 0 -285 162q-51 98 -51 230q0 133 51 231q84 163 285 163q120 0 200 -47q42 -24 59 -49q13 -20 13 -45v-96h63v96q0 44 -24 80 q-22 32 -72 63q-97 60 -239 60q-204 0 -310 -145q-89 -123 -89 -311z" />
<glyph unicode="&#xaa;" horiz-adv-x="648" />
<glyph unicode="&#xab;" horiz-adv-x="1151" d="M50 696l620 -401v75l-539 349l539 349v75l-620 -402v-45zM480 696l620 -401v75l-539 349l539 349v75l-620 -402v-45z" />
<glyph unicode="&#xac;" horiz-adv-x="1014" />
<glyph unicode="&#xad;" horiz-adv-x="1250" d="M49 686h1150v63h-1150v-63z" />
<glyph unicode="&#xae;" horiz-adv-x="1562" d="M49 715q0 -302 214 -517q215 -214 517 -214q303 0 517 214q214 215 214 517q0 304 -214 519t-517 215q-302 0 -517 -215q-214 -215 -214 -519zM112 715q0 278 196 475q196 196 472 196q277 0 473 -196q196 -197 196 -475q0 -276 -196 -472t-473 -196q-276 0 -472 196 t-196 472zM459 264h55q31 0 53 25q21 25 21 60v313h231l218 -360q24 -38 69 -38h70v62h-70q-10 0 -15 9l-199 328q98 8 160 86q57 72 57 167q0 100 -63 174q-68 80 -173 80h-414v-63h67v-758q0 -23 -12 -23h-55v-62zM588 725v382h285q77 0 127 -60q46 -56 46 -131t-46 -131 q-50 -60 -127 -60h-285z" />
<glyph unicode="&#xaf;" horiz-adv-x="1250" d="M49 1480h1150v63h-1150v-63z" />
<glyph unicode="&#xb0;" horiz-adv-x="342" d="M54 1337q0 -50 35 -84q34 -35 83 -35q50 0 84 35q35 34 35 84q0 49 -35 84q-34 34 -84 34q-49 0 -83 -34q-35 -35 -35 -84zM116 1337q0 23 17 39q16 17 39 17q24 0 40 -17q16 -16 16 -39q0 -24 -16 -40t-40 -16q-23 0 -39 16q-17 16 -17 40z" />
<glyph unicode="&#xb1;" horiz-adv-x="1250" d="M49 0h1150v63h-1150v-63zM49 686h543v-543h63v543h544v63h-544v544h-63v-544h-543v-63z" />
<glyph unicode="&#xb2;" horiz-adv-x="1014" />
<glyph unicode="&#xb3;" horiz-adv-x="1014" />
<glyph unicode="&#xb4;" horiz-adv-x="301" d="M49 1215h72l131 221h-74z" />
<glyph unicode="&#xb5;" d="M50 -461h63v613q97 -168 320 -168q224 0 321 169v-34q0 -49 29 -84q30 -35 71 -35h82v62h-82q-15 0 -26 17q-12 17 -12 40v737q0 22 12 39q11 17 26 17h82v63h-82q-41 0 -71 -35q-29 -35 -29 -84v-436q0 -135 -52 -229q-80 -144 -269 -144q-188 0 -268 144 q-52 94 -52 229v555h-63v-1436z" />
<glyph unicode="&#xb6;" horiz-adv-x="1320" d="M50 1043q0 -155 97 -270q105 -124 268 -124h369v-649h63v1435h-432q-163 0 -268 -124q-97 -114 -97 -268zM113 1043q0 129 80 225q87 105 222 105h369v-662h-369q-135 0 -222 105q-80 97 -80 227zM1208 0h63v1435h-63v-1435z" />
<glyph unicode="&#xb7;" horiz-adv-x="247" d="M94 883h63v180h-63v-180z" />
<glyph unicode="&#xb8;" horiz-adv-x="382" d="M51 -157q-9 -58 26 -98q31 -36 84 -46q17 -3 34 -3q51 0 88 25q36 26 45 68q12 57 -18 96q-24 31 -72 45l34 59q20 -1 -68 8l-68 -120l52 -2q52 -2 72 -29q13 -16 7 -44q-10 -43 -72 -43q-11 0 -22 2q-69 13 -60 71l2 13l-62 10z" />
<glyph unicode="&#xb9;" horiz-adv-x="1014" />
<glyph unicode="&#xba;" horiz-adv-x="718" />
<glyph unicode="&#xbb;" horiz-adv-x="1151" d="M50 295l620 401v45l-620 402v-75l539 -349l-539 -349v-75zM480 295l620 401v45l-620 402v-75l539 -349l-539 -349v-75z" />
<glyph unicode="&#xbc;" horiz-adv-x="1708" />
<glyph unicode="&#xbd;" horiz-adv-x="1964" />
<glyph unicode="&#xbe;" horiz-adv-x="1708" />
<glyph unicode="&#xbf;" horiz-adv-x="861" d="M50 -21q0 -122 58 -213q95 -149 322 -149q153 0 261 92q120 102 120 270v13h-63v-13q0 -144 -101 -227q-90 -72 -217 -72q-190 0 -269 123q-48 75 -48 176q0 117 28 173q22 41 118 134q47 45 74 72q96 98 124 195q18 61 18 199v26h-63v-26q0 -126 -15 -180 q-24 -84 -109 -169q-27 -28 -73 -72q-100 -97 -126 -146q-39 -73 -39 -206zM411 883h63v180h-63v-180z" />
<glyph unicode="&#xc0;" horiz-adv-x="1316" d="M30 0h82q42 0 84 44q37 41 56 96l87 246h639l107 -306q12 -34 45 -57q32 -23 68 -23h89v63h-89q-16 0 -32 12q-17 11 -22 26l-440 1254q-12 34 -44 57q-33 23 -69 23h-88v-62h88q12 0 24 -7l-422 -1206q-14 -41 -41 -70q-24 -27 -40 -27h-82v-63zM361 449l297 849 l298 -849h-595zM495 1705l131 -221h72l-129 221h-74z" />
<glyph unicode="&#xc1;" horiz-adv-x="1316" d="M30 0h82q42 0 84 44q37 41 56 96l87 246h639l107 -306q12 -34 45 -57q32 -23 68 -23h89v63h-89q-16 0 -32 12q-17 11 -22 26l-440 1254q-12 34 -44 57q-33 23 -69 23h-88v-62h88q12 0 24 -7l-422 -1206q-14 -41 -41 -70q-24 -27 -40 -27h-82v-63zM361 449l297 849 l298 -849h-595zM597 1484h73l130 221h-74z" />
<glyph unicode="&#xc2;" horiz-adv-x="1316" d="M30 0h82q42 0 84 44q37 41 56 96l87 246h639l107 -306q12 -34 45 -57q32 -23 68 -23h89v63h-89q-16 0 -32 12q-17 11 -22 26l-440 1254q-12 34 -44 57q-33 23 -69 23h-88v-62h88q12 0 24 -7l-422 -1206q-14 -41 -41 -70q-24 -27 -40 -27h-82v-63zM361 449l297 849 l298 -849h-595zM486 1484h73l100 170l99 -170h73l-130 221h-85z" />
<glyph unicode="&#xc3;" horiz-adv-x="1316" d="M30 0h82q42 0 84 44q37 41 56 96l87 246h639l107 -306q12 -34 45 -57q32 -23 68 -23h89v63h-89q-16 0 -32 12q-17 11 -22 26l-440 1254q-12 34 -44 57q-33 23 -69 23h-88v-62h88q12 0 24 -7l-422 -1206q-14 -41 -41 -70q-24 -27 -40 -27h-82v-63zM361 449l297 849 l298 -849h-595zM377 1607l49 -38l8 10q32 41 82 45q50 3 104 -48q62 -60 135 -60h9q97 5 168 91l8 9l-48 41l-8 -10q-56 -65 -123 -68q-51 -3 -97 42q-74 71 -153 66q-77 -6 -127 -70z" />
<glyph unicode="&#xc4;" horiz-adv-x="1316" d="M30 0h82q42 0 84 44q37 41 56 96l87 246h639l107 -306q12 -34 45 -57q32 -23 68 -23h89v63h-89q-16 0 -32 12q-17 11 -22 26l-440 1254q-12 34 -44 57q-33 23 -69 23h-88v-62h88q12 0 24 -7l-422 -1206q-14 -41 -41 -70q-24 -27 -40 -27h-82v-63zM361 449l297 849 l298 -849h-595zM503 1588q0 -24 16 -40q17 -17 40 -17q24 0 40 17q17 16 17 40q0 23 -17 40q-16 16 -40 16q-23 0 -40 -16q-16 -17 -16 -40zM702 1588q0 -24 17 -40q16 -17 40 -17q23 0 40 17q16 16 16 40q0 23 -16 40q-17 16 -40 16q-24 0 -40 -16q-17 -17 -17 -40z" />
<glyph unicode="&#xc5;" horiz-adv-x="1316" d="M30 0h82q42 0 84 45q38 40 57 95l87 248h640l108 -307q12 -34 45 -57q33 -24 68 -24h89v63h-89q-15 0 -32 12q-16 12 -22 27l-441 1257q1 -1 -2 6q75 30 75 110q0 49 -35 84t-84 35t-84 -35t-35 -84q0 -80 74 -110l-421 -1204q-15 -41 -42 -71q-24 -27 -40 -27h-82v-63z M362 450l298 852l298 -852h-596zM604 1475q0 23 16 40q17 16 40 16t40 -16q16 -17 16 -40t-16 -39q-17 -17 -40 -17t-40 17q-16 16 -16 39z" />
<glyph unicode="&#xc6;" horiz-adv-x="1827" d="M30 0h82q40 0 88 39q43 36 72 85l154 262h529v-323h-120v-63h823q49 0 84 29t35 69v80h-63v-80q0 -14 -17 -25q-17 -10 -39 -10h-640v661h615v63h-615v586h640q22 0 39 -11t17 -25v-79h63v79q0 41 -35 70q-35 28 -84 28h-823v-62h96l-713 -1217q-24 -40 -58 -68 q-31 -25 -48 -25h-82v-63zM462 449l493 839v-839h-493z" />
<glyph unicode="&#xc7;" horiz-adv-x="1129" d="M50 720q0 -306 125 -500q118 -185 331 -223l-68 -120l52 -2q52 -2 72 -29q13 -16 7 -44q-10 -43 -72 -43q-11 0 -22 2q-69 13 -60 71l2 13l-62 10l-2 -12q-9 -58 26 -98q31 -36 84 -46q17 -3 34 -3q51 0 88 25q36 26 45 68q12 57 -18 96q-24 31 -72 45l34 59q20 -1 37 -1 q201 0 341 100q72 52 103 106q24 41 24 88v106h-63v-106q0 -30 -15 -56q-26 -44 -89 -88q-124 -87 -301 -87q-298 0 -423 275q-75 168 -75 394q0 225 75 393q125 275 423 275q178 0 300 -84q63 -44 90 -91q15 -26 15 -56v-107h63v107q0 47 -24 88q-31 55 -104 106 q-139 100 -340 100q-287 0 -436 -232q-125 -194 -125 -499z" />
<glyph unicode="&#xc8;" horiz-adv-x="1081" d="M50 0h861q49 0 84 29t35 69v80h-63v-80q0 -14 -17 -25q-17 -10 -39 -10h-678v661h652v63h-652v586h678q22 0 39 -11t17 -25v-79h63v79q0 41 -35 70q-35 28 -84 28h-861v-62h120v-1310h-120v-63zM439 1705l131 -221h72l-129 221h-74z" />
<glyph unicode="&#xc9;" horiz-adv-x="1081" d="M50 0h861q49 0 84 29t35 69v80h-63v-80q0 -14 -17 -25q-17 -10 -39 -10h-678v661h652v63h-652v586h678q22 0 39 -11t17 -25v-79h63v79q0 41 -35 70q-35 28 -84 28h-861v-62h120v-1310h-120v-63zM439 1484h73l130 221h-74z" />
<glyph unicode="&#xca;" horiz-adv-x="1081" d="M50 0h861q49 0 84 29t35 69v80h-63v-80q0 -14 -17 -25q-17 -10 -39 -10h-678v661h652v63h-652v586h678q22 0 39 -11t17 -25v-79h63v79q0 41 -35 70q-35 28 -84 28h-861v-62h120v-1310h-120v-63zM368 1484h73l100 170l99 -170h73l-130 221h-85z" />
<glyph unicode="&#xcb;" horiz-adv-x="1081" d="M50 0h861q49 0 84 29t35 69v80h-63v-80q0 -14 -17 -25q-17 -10 -39 -10h-678v661h652v63h-652v586h678q22 0 39 -11t17 -25v-79h63v79q0 41 -35 70q-35 28 -84 28h-861v-62h120v-1310h-120v-63zM403 1588q0 -24 16 -40q17 -17 40 -17q24 0 40 17q17 16 17 40q0 23 -17 40 q-16 16 -40 16q-23 0 -40 -16q-16 -17 -16 -40zM602 1588q0 -24 17 -40q16 -17 40 -17q23 0 40 17q16 16 16 40q0 23 -16 40q-17 16 -40 16q-24 0 -40 -16q-17 -17 -17 -40z" />
<glyph unicode="&#xcc;" horiz-adv-x="364" d="M2 1705l131 -221h72l-129 221h-74zM30 1373h82q16 0 27 -17q12 -17 12 -40v-1197q0 -49 29 -84q30 -35 72 -35h82v63h-82q-16 0 -27 17q-12 17 -12 39v1197q0 49 -29 84q-30 35 -72 35h-82v-62z" />
<glyph unicode="&#xcd;" horiz-adv-x="364" d="M30 1373h82q16 0 27 -17q12 -17 12 -40v-1197q0 -49 29 -84q30 -35 72 -35h82v63h-82q-16 0 -27 17q-12 17 -12 39v1197q0 49 -29 84q-30 35 -72 35h-82v-62zM149 1484h72l131 221h-74z" />
<glyph unicode="&#xce;" horiz-adv-x="364" d="M6 1484h73l100 170l99 -170h73l-130 221h-85zM29 1373h82q16 0 27 -17q12 -17 12 -40v-1197q0 -49 29 -84q30 -35 72 -35h82v63h-82q-16 0 -27 17q-12 17 -12 39v1197q0 49 -29 84q-30 35 -72 35h-82v-62z" />
<glyph unicode="&#xcf;" horiz-adv-x="364" d="M28 1588q0 -24 16 -40q17 -17 40 -17q24 0 40 17q17 16 17 40q0 23 -17 40q-16 16 -40 16q-23 0 -40 -16q-16 -17 -16 -40zM30 1373h82q16 0 27 -17q12 -17 12 -40v-1197q0 -49 29 -84q30 -35 72 -35h82v63h-82q-16 0 -27 17q-12 17 -12 39v1197q0 49 -29 84 q-30 35 -72 35h-82v-62zM227 1588q0 -24 17 -40q16 -17 40 -17q23 0 40 17q16 16 16 40q0 23 -16 40q-17 16 -40 16q-24 0 -40 -16q-17 -17 -17 -40z" />
<glyph unicode="&#xd0;" horiz-adv-x="1401" d="M50 686h338v-623h-120v-63h441q287 0 463 197q176 198 176 519q0 326 -164 518q-166 194 -456 200l-460 1v-63h120v-623h-338v-63zM451 63v623h370v63h-370v623h258q271 0 423 -174q153 -174 153 -482q0 -268 -139 -449q-157 -204 -437 -204h-258z" />
<glyph unicode="&#xd1;" horiz-adv-x="1268" d="M50 0h82q42 0 71 35q30 35 30 84v1176l775 -1227q42 -68 122 -68h89v63h-89q-13 0 -31 8v1245q0 23 11 40q12 17 27 17h82v62h-82q-42 0 -71 -35q-30 -35 -30 -84v-1176l-775 1228q-43 67 -123 67h-88v-62h88q14 0 32 -8v-1246q0 -22 -12 -39q-11 -17 -26 -17h-82v-63z M353 1607l49 -38l8 10q32 41 82 45q50 3 104 -48q62 -60 135 -60h9q97 5 168 91l8 9l-48 41l-8 -10q-56 -65 -123 -68q-51 -3 -97 42q-74 71 -153 66q-77 -6 -127 -70z" />
<glyph unicode="&#xd2;" horiz-adv-x="1256" d="M52 718q0 -361 147 -548t430 -187q284 0 431 187t147 548q0 266 -94 450q-144 284 -484 284q-339 0 -483 -284q-94 -184 -94 -450zM115 718q0 243 83 411q129 260 431 260q303 0 432 -260q83 -168 83 -411q0 -299 -106 -468q-128 -204 -409 -204q-280 0 -408 204 q-106 169 -106 468zM528 1705l131 -221h72l-129 221h-74z" />
<glyph unicode="&#xd3;" horiz-adv-x="1256" d="M52 718q0 -361 147 -548t430 -187q284 0 431 187t147 548q0 266 -94 450q-144 284 -484 284q-339 0 -483 -284q-94 -184 -94 -450zM115 718q0 243 83 411q129 260 431 260q303 0 432 -260q83 -168 83 -411q0 -299 -106 -468q-128 -204 -409 -204q-280 0 -408 204 q-106 169 -106 468zM528 1484h72l131 221h-74z" />
<glyph unicode="&#xd4;" horiz-adv-x="1256" d="M52 718q0 -361 147 -548t430 -187q284 0 431 187t147 548q0 266 -94 450q-144 284 -484 284q-339 0 -483 -284q-94 -184 -94 -450zM115 718q0 243 83 411q129 260 431 260q303 0 432 -260q83 -168 83 -411q0 -299 -106 -468q-128 -204 -409 -204q-280 0 -408 204 q-106 169 -106 468zM457 1484h73l100 170l99 -170h73l-130 221h-85z" />
<glyph unicode="&#xd5;" horiz-adv-x="1256" d="M52 718q0 -361 147 -548t430 -187q284 0 431 187t147 548q0 266 -94 450q-144 284 -484 284q-339 0 -483 -284q-94 -184 -94 -450zM115 718q0 243 83 411q129 260 431 260q303 0 432 -260q83 -168 83 -411q0 -299 -106 -468q-128 -204 -409 -204q-280 0 -408 204 q-106 169 -106 468zM348 1607l49 -38l8 10q32 41 82 45q50 3 104 -48q62 -60 135 -60h9q97 5 168 91l8 9l-48 41l-8 -10q-56 -65 -123 -68q-51 -3 -97 42q-74 71 -153 66q-77 -6 -127 -70z" />
<glyph unicode="&#xd6;" horiz-adv-x="1256" d="M52 718q0 -361 147 -548t430 -187q284 0 431 187t147 548q0 266 -94 450q-144 284 -484 284q-339 0 -483 -284q-94 -184 -94 -450zM115 718q0 243 83 411q129 260 431 260q303 0 432 -260q83 -168 83 -411q0 -299 -106 -468q-128 -204 -409 -204q-280 0 -408 204 q-106 169 -106 468zM473 1588q0 -24 16 -40q17 -17 40 -17q24 0 40 17q17 16 17 40q0 23 -17 40q-16 16 -40 16q-23 0 -40 -16q-16 -17 -16 -40zM672 1588q0 -24 17 -40q16 -17 40 -17q23 0 40 17q16 16 16 40q0 23 -16 40q-17 16 -40 16q-24 0 -40 -16q-17 -17 -17 -40z " />
<glyph unicode="&#xd7;" horiz-adv-x="1014" />
<glyph unicode="&#xd8;" horiz-adv-x="1254" d="M50 718q0 -361 147 -548t430 -187t430 187t147 548q0 266 -93 450q-144 284 -484 284q-339 0 -484 -284q-93 -184 -93 -450zM113 718q0 243 83 411q129 260 431 260q197 0 321 -110l-704 -1065q-13 17 -25 36q-106 169 -106 468zM288 165l704 1067q149 -179 149 -514 q0 -299 -106 -468q-127 -204 -408 -204q-213 0 -339 119z" />
<glyph unicode="&#xd9;" horiz-adv-x="1305" d="M50 1372h79q13 0 23 -16q12 -17 12 -40v-710q0 -305 124 -463q125 -158 365 -158q239 0 364 158q124 158 124 463v710q0 23 12 40q10 16 23 16h79v63h-79q-40 0 -69 -35q-28 -35 -28 -84v-710q0 -558 -426 -558q-427 0 -427 558v710q0 49 -28 84q-29 35 -69 35h-79v-63z M551 1705l131 -221h72l-129 221h-74z" />
<glyph unicode="&#xda;" horiz-adv-x="1305" d="M50 1372h79q13 0 23 -16q12 -17 12 -40v-710q0 -305 124 -463q125 -158 365 -158q239 0 364 158q124 158 124 463v710q0 23 12 40q10 16 23 16h79v63h-79q-40 0 -69 -35q-28 -35 -28 -84v-710q0 -558 -426 -558q-427 0 -427 558v710q0 49 -28 84q-29 35 -69 35h-79v-63z M551 1484h72l131 221h-74z" />
<glyph unicode="&#xdb;" horiz-adv-x="1305" d="M50 1372h79q13 0 23 -16q12 -17 12 -40v-710q0 -305 124 -463q125 -158 365 -158q239 0 364 158q124 158 124 463v710q0 23 12 40q10 16 23 16h79v63h-79q-40 0 -69 -35q-28 -35 -28 -84v-710q0 -558 -426 -558q-427 0 -427 558v710q0 49 -28 84q-29 35 -69 35h-79v-63z M480 1484h73l100 170l99 -170h73l-130 221h-85z" />
<glyph unicode="&#xdc;" horiz-adv-x="1305" d="M50 1372h79q13 0 23 -16q12 -17 12 -40v-710q0 -305 124 -463q125 -158 365 -158q239 0 364 158q124 158 124 463v710q0 23 12 40q10 16 23 16h79v63h-79q-40 0 -69 -35q-28 -35 -28 -84v-710q0 -558 -426 -558q-427 0 -427 558v710q0 49 -28 84q-29 35 -69 35h-79v-63z M503 1588q0 -24 16 -40q17 -17 40 -17q24 0 40 17q17 16 17 40q0 23 -17 40q-16 16 -40 16q-23 0 -40 -16q-16 -17 -16 -40zM702 1588q0 -24 17 -40q16 -17 40 -17q23 0 40 17q16 16 16 40q0 23 -16 40q-17 16 -40 16q-24 0 -40 -16q-17 -17 -17 -40z" />
<glyph unicode="&#xdd;" horiz-adv-x="1066" d="M40 1372h88q28 0 44 -31l313 -621q8 -17 22 -26v-694h62v695q13 10 21 25l313 621q15 31 48 31h85v63h-85q-31 0 -60 -19q-30 -19 -44 -47l-310 -613l-309 613q-14 28 -43 47t-57 19h-88v-63zM437 1484h72l131 221h-74z" />
<glyph unicode="&#xde;" horiz-adv-x="1110" d="M50 0h82q42 0 71 35q30 35 30 84v94h382q218 0 331 128q113 129 113 377q0 183 -72 309q-111 196 -372 196h-382v93q0 49 -30 84q-29 35 -71 35h-82v-62h82q15 0 26 -17q12 -17 12 -40v-1197q0 -22 -12 -39q-11 -17 -26 -17h-82v-63zM233 276v884h382q224 0 320 -171 q61 -111 61 -271q0 -442 -381 -442h-382z" />
<glyph unicode="&#xdf;" horiz-adv-x="908" d="M50 1h63v1089q0 131 90 216q91 85 229 85q139 0 229 -85q91 -85 91 -216q0 -130 -91 -215q-90 -85 -229 -85h-12v-63h12q155 0 259 -98q103 -97 103 -243q0 -173 -115 -262q-97 -76 -247 -76h-12v-63h12q176 0 290 90q135 106 135 311q0 128 -70 229q-70 100 -189 145 q100 43 158 132q59 89 59 198q0 156 -110 260q-109 104 -273 104q-163 0 -273 -104q-109 -104 -109 -260v-1089z" />
<glyph unicode="&#xe0;" horiz-adv-x="1059" d="M54 329q0 -345 411 -345q258 0 361 136v-2q0 -49 29 -84q30 -35 71 -35h82v63h-82q-15 0 -26 17t-11 39v523q0 128 -67 216q-102 137 -342 137q-143 0 -255 -66q-59 -35 -59 -103v-94h63v94q0 32 28 49q97 57 223 57q203 0 290 -112q56 -73 56 -178v-83q-92 116 -361 116 q-213 0 -312 -83t-99 -262zM117 329q0 133 59 196q81 86 289 86q215 0 294 -72q67 -61 67 -210q0 -282 -361 -282q-207 0 -290 92q-58 65 -58 190zM389 1381l131 -221h72l-129 221h-74z" />
<glyph unicode="&#xe1;" horiz-adv-x="1059" d="M54 329q0 -345 411 -345q258 0 361 136v-2q0 -49 29 -84q30 -35 71 -35h82v63h-82q-15 0 -26 17t-11 39v523q0 128 -67 216q-102 137 -342 137q-143 0 -255 -66q-59 -35 -59 -103v-94h63v94q0 32 28 49q97 57 223 57q203 0 290 -112q56 -73 56 -178v-83q-92 116 -361 116 q-213 0 -312 -83t-99 -262zM117 329q0 133 59 196q81 86 289 86q215 0 294 -72q67 -61 67 -210q0 -282 -361 -282q-207 0 -290 92q-58 65 -58 190zM389 1160h72l131 221h-74z" />
<glyph unicode="&#xe2;" horiz-adv-x="1059" d="M54 329q0 -345 411 -345q258 0 361 136v-2q0 -49 29 -84q30 -35 71 -35h82v63h-82q-15 0 -26 17t-11 39v523q0 128 -67 216q-102 137 -342 137q-143 0 -255 -66q-59 -35 -59 -103v-94h63v94q0 32 28 49q97 57 223 57q203 0 290 -112q56 -73 56 -178v-83q-92 116 -361 116 q-213 0 -312 -83t-99 -262zM117 329q0 133 59 196q81 86 289 86q215 0 294 -72q67 -61 67 -210q0 -282 -361 -282q-207 0 -290 92q-58 65 -58 190zM307 1160h73l100 170l99 -170h73l-130 221h-85z" />
<glyph unicode="&#xe3;" horiz-adv-x="1059" d="M54 329q0 -345 411 -345q258 0 361 136v-2q0 -49 29 -84q30 -35 71 -35h82v63h-82q-15 0 -26 17t-11 39v523q0 128 -67 216q-102 137 -342 137q-143 0 -255 -66q-59 -35 -59 -103v-94h63v94q0 32 28 49q97 57 223 57q203 0 290 -112q56 -73 56 -178v-83q-92 116 -361 116 q-213 0 -312 -83t-99 -262zM117 329q0 133 59 196q81 86 289 86q215 0 294 -72q67 -61 67 -210q0 -282 -361 -282q-207 0 -290 92q-58 65 -58 190zM214 1283l49 -38l8 10q32 41 82 45q50 3 104 -48q62 -60 135 -60h9q97 5 168 91l8 9l-48 41l-8 -10q-56 -65 -123 -68 q-51 -3 -97 42q-74 71 -153 66q-77 -6 -127 -70z" />
<glyph unicode="&#xe4;" horiz-adv-x="1059" d="M54 329q0 -345 411 -345q258 0 361 136v-2q0 -49 29 -84q30 -35 71 -35h82v63h-82q-15 0 -26 17t-11 39v523q0 128 -67 216q-102 137 -342 137q-143 0 -255 -66q-59 -35 -59 -103v-94h63v94q0 32 28 49q97 57 223 57q203 0 290 -112q56 -73 56 -178v-83q-92 116 -361 116 q-213 0 -312 -83t-99 -262zM117 329q0 133 59 196q81 86 289 86q215 0 294 -72q67 -61 67 -210q0 -282 -361 -282q-207 0 -290 92q-58 65 -58 190zM335 1263q0 -24 16 -40q17 -17 40 -17q24 0 40 17q17 16 17 40q0 23 -17 40q-16 16 -40 16q-23 0 -40 -16q-16 -17 -16 -40z M534 1263q0 -24 17 -40q16 -17 40 -17q23 0 40 17q16 16 16 40q0 23 -16 40q-17 16 -40 16q-24 0 -40 -16q-17 -17 -17 -40z" />
<glyph unicode="&#xe5;" horiz-adv-x="1059" d="M54 329q0 -345 411 -345q258 0 361 136v-2q0 -49 29 -84q30 -35 71 -35h82v63h-82q-15 0 -26 17t-11 39v523q0 128 -67 216q-102 137 -342 137q-143 0 -255 -66q-59 -35 -59 -103v-94h63v94q0 32 28 49q97 57 223 57q203 0 290 -112q56 -73 56 -178v-83q-92 116 -361 116 q-213 0 -312 -83t-99 -262zM117 329q0 133 59 196q81 86 289 86q215 0 294 -72q67 -61 67 -210q0 -282 -361 -282q-207 0 -290 92q-58 65 -58 190zM368 1241q0 -50 35 -84q34 -35 83 -35q50 0 84 35q35 34 35 84q0 49 -35 84q-34 34 -84 34q-49 0 -83 -34q-35 -35 -35 -84z M430 1241q0 23 17 39q16 17 39 17q24 0 40 -17q16 -16 16 -39q0 -24 -16 -40t-40 -16q-23 0 -39 16q-17 16 -17 40z" />
<glyph unicode="&#xe6;" horiz-adv-x="1762" d="M51 329q0 -346 411 -346q343 0 410 235q102 -235 396 -235q158 0 268 69q57 36 82 74q21 31 21 68v74h-63v-74q0 -18 -10 -33q-20 -29 -68 -58q-95 -57 -230 -57q-367 0 -381 412h826v31q0 183 -72 310q-111 196 -373 196q-292 0 -396 -245q-28 101 -106 162 q-105 83 -289 83q-143 0 -255 -66q-59 -35 -59 -103v-95h63v95q0 32 28 48q100 58 223 58q204 0 291 -113q56 -72 56 -178v-83q-92 117 -362 117q-213 0 -312 -84q-99 -83 -99 -262zM114 329q0 133 59 196q81 87 289 87q215 0 295 -73q67 -61 67 -210q0 -283 -362 -283 q-207 0 -290 92q-58 65 -58 191zM887 520q7 163 76 266q97 146 305 146q209 0 306 -146q69 -103 76 -266h-763z" />
<glyph unicode="&#xe7;" horiz-adv-x="912" d="M50 487q0 -183 80 -314q95 -154 279 -183l-67 -118l51 -2q53 -2 73 -29q13 -16 7 -43q-10 -44 -72 -44q-11 0 -22 2q-70 13 -60 72l2 12l-62 10l-2 -12q-10 -58 26 -98q31 -36 84 -46q17 -3 34 -3q51 0 88 25q36 26 45 68q12 57 -18 96q-25 31 -72 45l33 59h14 q158 0 265 64q55 34 79 69q27 39 27 87v108h-63v-108q0 -28 -16 -51q-18 -27 -66 -54q-92 -53 -226 -53q-226 0 -321 182q-57 110 -57 259q0 150 57 261q95 182 321 182q134 0 226 -54q48 -27 66 -54q16 -24 16 -52v-106h63v106q-1 47 -26 87q-24 36 -79 70q-108 66 -266 66 q-225 0 -342 -161q-99 -136 -99 -345z" />
<glyph unicode="&#xe8;" horiz-adv-x="1000" d="M63 491q0 -248 113 -376q113 -129 331 -129q158 0 267 69q57 35 82 73q21 31 21 68v74h-63v-74q0 -18 -10 -33q-20 -29 -68 -58q-95 -56 -229 -56q-367 0 -381 410h825v32q0 183 -72 309q-111 195 -372 195t-372 -195q-72 -126 -72 -309zM127 522q6 162 75 265 q97 146 305 146t305 -146q69 -103 76 -265h-761zM406 1381l131 -221h72l-129 221h-74z" />
<glyph unicode="&#xe9;" horiz-adv-x="1000" d="M63 491q0 -248 113 -376q113 -129 331 -129q158 0 267 69q57 35 82 73q21 31 21 68v74h-63v-74q0 -18 -10 -33q-20 -29 -68 -58q-95 -56 -229 -56q-367 0 -381 410h825v32q0 183 -72 309q-111 195 -372 195t-372 -195q-72 -126 -72 -309zM127 522q6 162 75 265 q97 146 305 146t305 -146q69 -103 76 -265h-761zM406 1160h72l131 221h-74z" />
<glyph unicode="&#xea;" horiz-adv-x="1000" d="M63 491q0 -248 113 -376q113 -129 331 -129q158 0 267 69q57 35 82 73q21 31 21 68v74h-63v-74q0 -18 -10 -33q-20 -29 -68 -58q-95 -56 -229 -56q-367 0 -381 410h825v32q0 183 -72 309q-111 195 -372 195t-372 -195q-72 -126 -72 -309zM127 522q6 162 75 265 q97 146 305 146t305 -146q69 -103 76 -265h-761zM335 1160h73l100 170l99 -170h73l-130 221h-85z" />
<glyph unicode="&#xeb;" horiz-adv-x="1000" d="M63 491q0 -248 113 -376q113 -129 331 -129q158 0 267 69q57 35 82 73q21 31 21 68v74h-63v-74q0 -18 -10 -33q-20 -29 -68 -58q-95 -56 -229 -56q-367 0 -381 410h825v32q0 183 -72 309q-111 195 -372 195t-372 -195q-72 -126 -72 -309zM127 522q6 162 75 265 q97 146 305 146t305 -146q69 -103 76 -265h-761zM345 1263q0 -24 16 -40q17 -17 40 -17q24 0 40 17q17 16 17 40q0 23 -17 40q-16 16 -40 16q-23 0 -40 -16q-16 -17 -16 -40zM544 1263q0 -24 17 -40q16 -17 40 -17q23 0 40 17q16 16 16 40q0 23 -16 40q-17 16 -40 16 q-24 0 -40 -16q-17 -17 -17 -40z" />
<glyph unicode="&#xec;" horiz-adv-x="243" d="M-50 1381l131 -221h72l-129 221h-74zM90 0h63v943h-63v-943z" />
<glyph unicode="&#xed;" horiz-adv-x="243" d="M90 0h63v943h-63v-943zM90 1160h72l131 221h-74z" />
<glyph unicode="&#xee;" horiz-adv-x="243" d="M-53 1160h73l100 170l99 -170h73l-130 221h-85zM90 0h63v943h-63v-943z" />
<glyph unicode="&#xef;" horiz-adv-x="243" d="M-33 1263q0 -24 16 -40q17 -17 40 -17q24 0 40 17q17 16 17 40q0 23 -17 40q-16 16 -40 16q-23 0 -40 -16q-16 -17 -16 -40zM90 0h63v943h-63v-943zM166 1263q0 -24 17 -40q16 -17 40 -17q23 0 40 17q16 16 16 40q0 23 -16 40q-17 16 -40 16q-24 0 -40 -16 q-17 -17 -17 -40z" />
<glyph unicode="&#xf0;" horiz-adv-x="1110" d="M51 456q0 -241 144 -367q121 -105 308 -105t308 105q144 125 144 366v72q3 476 -89 665l194 46l-14 61l-212 -50q-26 40 -57 71q-56 57 -132 89l-7 3l-54 -47l20 -7q74 -28 128 -82q19 -19 36 -42l-304 -72l14 -61l325 76q81 -153 89 -460q-117 212 -389 212 q-230 0 -351 -155q-101 -129 -101 -318zM114 456q0 169 87 279q103 131 302 131q197 0 301 -130q87 -110 88 -279q0 -210 -124 -319q-104 -91 -265 -91t-265 91q-124 109 -124 318z" />
<glyph unicode="&#xf1;" d="M50 0h82q42 0 71 35q30 35 30 84v440q0 135 51 229q81 144 269 144q189 0 269 -144q52 -94 52 -229v-559h62v559q0 158 -62 267q-95 169 -321 169q-223 0 -320 -169v30q0 50 -30 85q-29 35 -71 35h-82v-63h82q15 0 26 -17q12 -17 12 -40v-737q0 -22 -12 -39 q-11 -17 -26 -17h-82v-63zM264 1283l49 -38l8 10q32 41 82 45q50 3 104 -48q62 -60 135 -60h9q97 5 168 91l8 9l-48 41l-8 -10q-56 -65 -123 -68q-51 -3 -97 42q-74 71 -153 66q-77 -6 -127 -70z" />
<glyph unicode="&#xf2;" horiz-adv-x="989" d="M50 488q0 -248 113 -376q113 -129 331 -129t331 129q113 128 113 376q0 183 -72 309q-111 196 -372 196t-372 -196q-72 -126 -72 -309zM113 488q0 160 61 271q96 171 320 171t320 -171q61 -111 61 -271q0 -442 -381 -442t-381 442zM393 1381l131 -221h72l-129 221h-74z " />
<glyph unicode="&#xf3;" horiz-adv-x="989" d="M50 488q0 -248 113 -376q113 -129 331 -129t331 129q113 128 113 376q0 183 -72 309q-111 196 -372 196t-372 -196q-72 -126 -72 -309zM113 488q0 160 61 271q96 171 320 171t320 -171q61 -111 61 -271q0 -442 -381 -442t-381 442zM393 1160h72l131 221h-74z" />
<glyph unicode="&#xf4;" horiz-adv-x="989" d="M50 488q0 -248 113 -376q113 -129 331 -129t331 129q113 128 113 376q0 183 -72 309q-111 196 -372 196t-372 -196q-72 -126 -72 -309zM113 488q0 160 61 271q96 171 320 171t320 -171q61 -111 61 -271q0 -442 -381 -442t-381 442zM322 1160h73l100 170l99 -170h73 l-130 221h-85z" />
<glyph unicode="&#xf5;" horiz-adv-x="989" d="M50 488q0 -248 113 -376q113 -129 331 -129t331 129q113 128 113 376q0 183 -72 309q-111 196 -372 196t-372 -196q-72 -126 -72 -309zM113 488q0 160 61 271q96 171 320 171t320 -171q61 -111 61 -271q0 -442 -381 -442t-381 442zM213 1283l49 -38l8 10q32 41 82 45 q50 3 104 -48q62 -60 135 -60h9q97 5 168 91l8 9l-48 41l-8 -10q-56 -65 -123 -68q-51 -3 -97 42q-74 71 -153 66q-77 -6 -127 -70z" />
<glyph unicode="&#xf6;" horiz-adv-x="989" d="M50 488q0 -248 113 -376q113 -129 331 -129t331 129q113 128 113 376q0 183 -72 309q-111 196 -372 196t-372 -196q-72 -126 -72 -309zM113 488q0 160 61 271q96 171 320 171t320 -171q61 -111 61 -271q0 -442 -381 -442t-381 442zM345 1263q0 -24 16 -40q17 -17 40 -17 q24 0 40 17q17 16 17 40q0 23 -17 40q-16 16 -40 16q-23 0 -40 -16q-16 -17 -16 -40zM544 1263q0 -24 17 -40q16 -17 40 -17q23 0 40 17q16 16 16 40q0 23 -16 40q-17 16 -40 16q-24 0 -40 -16q-17 -17 -17 -40z" />
<glyph unicode="&#xf7;" horiz-adv-x="1014" />
<glyph unicode="&#xf8;" horiz-adv-x="989" d="M51 487q0 -248 113 -377q113 -128 331 -128t331 128q113 129 113 377q0 183 -72 309q-111 195 -372 195t-372 -195q-72 -126 -72 -309zM114 487q0 160 61 270q96 172 320 172q130 0 217 -58l-485 -735q-113 110 -113 351zM277 97l484 733q115 -117 115 -343 q0 -443 -381 -443q-132 0 -218 53z" />
<glyph unicode="&#xf9;" d="M49 416q1 -157 63 -265q96 -167 320 -167t321 168v-34q0 -49 29 -84q30 -35 71 -35h82v63h-82q-15 0 -26 17q-12 17 -12 39v738q0 22 12 39q11 17 26 17h82v63h-82q-41 0 -71 -35q-29 -35 -29 -84v-437q0 -135 -52 -228q-80 -144 -269 -144t-269 144q-52 93 -52 228v556 h-62v-559zM287 1381l131 -221h72l-129 221h-74z" />
<glyph unicode="&#xfa;" d="M49 416q1 -157 63 -265q96 -167 320 -167t321 168v-34q0 -49 29 -84q30 -35 71 -35h82v63h-82q-15 0 -26 17q-12 17 -12 39v738q0 22 12 39q11 17 26 17h82v63h-82q-41 0 -71 -35q-29 -35 -29 -84v-437q0 -135 -52 -228q-80 -144 -269 -144t-269 144q-52 93 -52 228v556 h-62v-559zM287 1160h72l131 221h-74z" />
<glyph unicode="&#xfb;" d="M49 416q1 -157 63 -265q96 -167 320 -167t321 168v-34q0 -49 29 -84q30 -35 71 -35h82v63h-82q-15 0 -26 17q-12 17 -12 39v738q0 22 12 39q11 17 26 17h82v63h-82q-41 0 -71 -35q-29 -35 -29 -84v-437q0 -135 -52 -228q-80 -144 -269 -144t-269 144q-52 93 -52 228v556 h-62v-559zM272 1160h73l100 170l99 -170h73l-130 221h-85z" />
<glyph unicode="&#xfc;" d="M49 416q1 -157 63 -265q96 -167 320 -167t321 168v-34q0 -49 29 -84q30 -35 71 -35h82v63h-82q-15 0 -26 17q-12 17 -12 39v738q0 22 12 39q11 17 26 17h82v63h-82q-41 0 -71 -35q-29 -35 -29 -84v-437q0 -135 -52 -228q-80 -144 -269 -144t-269 144q-52 93 -52 228v556 h-62v-559zM275 1263q0 -24 16 -40q17 -17 40 -17q24 0 40 17q17 16 17 40q0 23 -17 40q-16 16 -40 16q-23 0 -40 -16q-16 -17 -16 -40zM474 1263q0 -24 17 -40q16 -17 40 -17q23 0 40 17q16 16 16 40q0 23 -16 40q-17 16 -40 16q-24 0 -40 -16q-17 -17 -17 -40z" />
<glyph unicode="&#xfd;" d="M50 373q4 -156 68 -260q97 -159 314 -159q223 0 320 167l-1 -182q0 -96 -44 -186q-85 -174 -296 -174h-13v-63h13q248 0 350 210q53 107 53 213l1 885q0 23 11 39q12 17 27 17h82v63h-82q-42 0 -71 -35q-30 -35 -30 -84v-452q-4 -139 -60 -227q-81 -128 -260 -128 q-188 0 -268 144q-51 93 -51 227v555h-63v-570zM397 1160h72l131 221h-74z" />
<glyph unicode="&#xfe;" horiz-adv-x="1109" d="M50 0h82q42 0 71 35q30 35 30 84v300q107 -206 382 -206q218 0 331 128q113 129 113 377q0 183 -72 309q-111 196 -372 196q-273 0 -382 -216v309q0 49 -30 84q-29 35 -71 35h-82v-62h82q15 0 26 -17q12 -17 12 -40v-1197q0 -22 -12 -39q-11 -17 -26 -17h-82v-63z M234 718q0 160 61 271q96 171 320 171t320 -171q61 -111 61 -271q0 -442 -381 -442t-381 442z" />
<glyph unicode="&#xff;" d="M50 373q4 -156 68 -260q97 -159 314 -159q223 0 320 167l-1 -182q0 -96 -44 -186q-85 -174 -296 -174h-13v-63h13q248 0 350 210q53 107 53 213l1 885q0 23 11 39q12 17 27 17h82v63h-82q-42 0 -71 -35q-30 -35 -30 -84v-452q-4 -139 -60 -227q-81 -128 -260 -128 q-188 0 -268 144q-51 93 -51 227v555h-63v-570zM275 1263q0 -24 16 -40q17 -17 40 -17q24 0 40 17q17 16 17 40q0 23 -17 40q-16 16 -40 16q-23 0 -40 -16q-16 -17 -16 -40zM474 1263q0 -24 17 -40q16 -17 40 -17q23 0 40 17q16 16 16 40q0 23 -16 40q-17 16 -40 16 q-24 0 -40 -16q-17 -17 -17 -40z" />
<glyph unicode="&#x152;" horiz-adv-x="2051" d="M53 717q0 -359 146 -545q147 -187 429 -187q387 0 516 349v-334h740q49 0 84 29t35 70v79h-63v-79q0 -15 -17 -25q-16 -11 -39 -11h-677v660h652v63h-652v585h677q23 0 39 -10q17 -11 17 -25v-80h63v80q0 40 -35 69t-84 29h-740v-349q-132 364 -516 364q-338 0 -482 -283 q-93 -183 -93 -449zM116 717q0 243 82 410q129 259 430 259t430 -259q82 -167 82 -410q0 -298 -105 -466q-128 -203 -407 -203t-407 203q-105 168 -105 466z" />
<glyph unicode="&#x153;" horiz-adv-x="1816" d="M50 490q0 -247 113 -376t331 -129q325 0 414 284q88 -283 414 -283q158 0 267 68q57 36 82 73q21 32 21 69v73h-63v-73q0 -18 -10 -33q-20 -29 -68 -58q-95 -57 -229 -57q-367 0 -381 411h825v31q0 183 -72 310q-111 195 -372 195q-323 0 -414 -294q-91 294 -414 294 q-261 0 -372 -195q-72 -127 -72 -310zM113 490q0 161 61 271q96 171 320 171t320 -171q61 -110 61 -271q0 -442 -381 -442t-381 442zM941 522q7 162 76 265q97 145 305 145t305 -145q69 -103 76 -265h-762z" />
<glyph unicode="&#x2c6;" horiz-adv-x="448" d="M55 1215h73l100 170l99 -170h73l-130 221h-85z" />
<glyph unicode="&#x2dc;" horiz-adv-x="658" d="M56 1283l49 -38l8 10q32 41 82 45q50 3 104 -48q62 -60 135 -60h9q97 5 168 91l8 9l-48 41l-8 -10q-56 -65 -123 -68q-51 -3 -97 42q-74 71 -153 66q-77 -6 -127 -70z" />
<glyph unicode="&#x2000;" horiz-adv-x="852" />
<glyph unicode="&#x2001;" horiz-adv-x="1705" />
<glyph unicode="&#x2002;" horiz-adv-x="852" />
<glyph unicode="&#x2003;" horiz-adv-x="1705" />
<glyph unicode="&#x2004;" horiz-adv-x="568" />
<glyph unicode="&#x2005;" horiz-adv-x="426" />
<glyph unicode="&#x2006;" horiz-adv-x="284" />
<glyph unicode="&#x2007;" horiz-adv-x="284" />
<glyph unicode="&#x2008;" horiz-adv-x="213" />
<glyph unicode="&#x2009;" horiz-adv-x="341" />
<glyph unicode="&#x200a;" horiz-adv-x="94" />
<glyph unicode="&#x2010;" horiz-adv-x="1250" d="M49 686h1150v63h-1150v-63z" />
<glyph unicode="&#x2011;" horiz-adv-x="1250" d="M49 686h1150v63h-1150v-63z" />
<glyph unicode="&#x2012;" horiz-adv-x="1250" d="M49 686h1150v63h-1150v-63z" />
<glyph unicode="&#x2013;" horiz-adv-x="1250" d="M49 686h1150v63h-1150v-63z" />
<glyph unicode="&#x2014;" horiz-adv-x="1250" d="M49 686h1150v63h-1150v-63z" />
<glyph unicode="&#x2018;" horiz-adv-x="243" d="M87 1118v132q-12 126 56 178l10 8l38 -50l-10 -7q-41 -32 -32 -125v-136h-62z" />
<glyph unicode="&#x2019;" horiz-adv-x="243" d="M47 1167l10 8q41 32 32 124v137h62v-133q12 -125 -56 -178l-10 -7z" />
<glyph unicode="&#x201a;" horiz-adv-x="247" d="M50 -88l39 -50l10 8q68 52 56 178v132h-63v-134v-2q9 -93 -32 -125z" />
<glyph unicode="&#x201c;" horiz-adv-x="371" d="M90 1118h62v134v2q-9 93 32 125l10 7l-38 50l-10 -8q-68 -52 -56 -178v-132zM214 1118v132q-11 126 57 178l10 8l38 -50l-10 -7q-41 -32 -32 -125v-136h-63z" />
<glyph unicode="&#x201d;" horiz-adv-x="371" d="M49 1167l10 8q41 32 32 124v137h62v-133q12 -125 -56 -178l-10 -7zM174 1167l38 -49l10 7q68 53 56 178v133h-63v-134l1 -3q9 -92 -32 -124z" />
<glyph unicode="&#x201e;" horiz-adv-x="371" d="M49 -89l10 8q41 32 32 124v137h62v-133q12 -125 -56 -178l-10 -7zM174 -89l38 -49l10 7q68 53 56 178v133h-63v-134l1 -3q9 -92 -32 -124z" />
<glyph unicode="&#x2022;" horiz-adv-x="213" d="M51 937q0 -24 17 -40q16 -17 40 -17q23 0 40 17q16 16 16 40q0 23 -16 40q-17 16 -40 16q-24 0 -40 -16q-17 -17 -17 -40z" />
<glyph unicode="&#x2026;" horiz-adv-x="2048" />
<glyph unicode="&#x202f;" horiz-adv-x="341" />
<glyph unicode="&#x2039;" horiz-adv-x="720" d="M49 696l620 -401v75l-539 349l539 349v75l-620 -402v-45z" />
<glyph unicode="&#x203a;" horiz-adv-x="720" d="M49 295l620 401v45l-620 402v-75l539 -349l-539 -349v-75z" />
<glyph unicode="&#x205f;" horiz-adv-x="426" />
<glyph unicode="&#x20ac;" horiz-adv-x="1390" d="M50 546h186q59 -245 260 -403t452 -158q207 0 382 107l11 7l-33 53l-11 -6q-160 -98 -349 -98q-229 0 -409 139q-180 138 -238 359h541v63h-555q-9 55 -9 109q0 56 9 113h555v63h-541q59 220 239 359q180 138 408 138q168 0 315 -78l11 -6l30 55l-12 6q-160 86 -344 86 q-258 0 -459 -163q-194 -157 -253 -397h-186v-63h174q-9 -57 -9 -113q0 -54 8 -109h-173v-63z" />
<glyph unicode="&#x2122;" horiz-adv-x="1874" d="M51 1302h63v60q0 11 11 11h235v-920h62v920h235q11 0 11 -11v-60h63v60q0 30 -22 52q-21 21 -52 21h-532q-31 0 -52 -21q-22 -22 -22 -52v-60zM814 447v63h59q16 0 16 28l1 831q-7 4 -12 4h-64v62h64q27 0 52 -16q25 -17 35 -42l355 -851l354 851q10 25 35 42 q25 16 52 16h64v-62h-64q-5 0 -12 -4l1 -831q0 -28 16 -28h59v-63h-59q-33 0 -56 27q-22 26 -23 64v707l-322 -773q-15 -36 -45 -36q-31 0 -46 36l-322 773v-707q0 -38 -23 -64q-23 -27 -56 -27h-59z" />
<glyph unicode="&#x25fc;" horiz-adv-x="975" d="M0 0v975h975v-975h-975z" />
</font>
</defs>
</svg>
